<svg xmlns="http://www.w3.org/2000/svg" version="1.1" xmlns:xlink="http://www.w3.org/1999/xlink" width="512" height="512" x="0" y="0" viewBox="0 0 512 512" style="enable-background:new 0 0 512 512" xml:space="preserve" class=""><g><circle cx="256" cy="256" r="256" fill="#ff7d81" opacity="1" data-original="#b674f2" class=""></circle><path fill="#ff475a" d="M512 256c0-.449-.001-.897-.004-1.346l-50.556-50.557L71.017 355.606l154.611 154.611A258.724 258.724 0 0 0 256 512c141.385 0 256-114.615 256-256z" opacity="1" data-original="#8f4cd6" class=""></path><path fill="#cdd2e1" d="M319.813 186.472c34.063 13.074 51.078 51.286 38.004 85.35-13.074 34.063-51.286 51.078-85.349 38.004-78.691-30.203-109.286-144.391-96.212-178.454z" opacity="1" data-original="#cdd2e1" class=""></path><path fill="#afb4c8" d="m319.813 186.472-63.969-24.553v139.906c5.283 3.076 10.819 5.771 16.623 8 34.063 13.074 72.275-3.941 85.349-38.004 13.075-34.063-3.94-72.275-38.003-85.349z" opacity="1" data-original="#afb4c8"></path><path fill="#ffffff" d="M461.44 204.098s-14.095-1.695-23.945-8.947c-12.76-9.394-19.747-25.351-46.827-25.603-37.906-.353-102.777 88.206-231.223 108.208-85.147 13.259-108.885 8.239-108.885 8.239l20.457 69.612 79.971-28.913s48.855 60.408 142.256 50.157 95.099-138.91 168.196-172.753z" opacity="1" data-original="#ffffff" class=""></path><path fill="#e9edf5" d="M437.494 195.151c-12.76-9.394-19.747-25.351-46.827-25.604-26.939-.251-67.506 44.4-134.823 77.44v130.297c11.544 1.048 24.012 1.036 37.399-.434 93.4-10.251 95.1-138.91 168.196-172.753.001.001-14.094-1.695-23.945-8.946z" opacity="1" data-original="#e9edf5"></path><path fill="#e9edf5" d="M281.221 184.322c36.486 0 66.064 29.578 66.064 66.064s-29.578 66.064-66.064 66.064c-84.288 0-153.769-95.641-153.769-132.127h153.769z" opacity="1" data-original="#e9edf5"></path><path fill="#cdd2e1" d="M281.221 184.322h-25.377V313.59c8.266 1.841 16.742 2.859 25.377 2.859 36.486 0 66.064-29.578 66.064-66.063s-29.578-66.064-66.064-66.064z" opacity="1" data-original="#cdd2e1" class=""></path><circle cx="396.494" cy="193.565" r="9.243" fill="#9196aa" opacity="1" data-original="#9196aa" class=""></circle></g></svg>